<?xml version="1.0" encoding="UTF-8" standalone="no"?>
<svg xmlns:dc="http://purl.org/dc/elements/1.1/" xmlns:cc="http://creativecommons.org/ns#" xmlns:rdf="http://www.w3.org/1999/02/22-rdf-syntax-ns#" xmlns:svg="http://www.w3.org/2000/svg" xmlns="http://www.w3.org/2000/svg" xmlns:sodipodi="http://sodipodi.sourceforge.net/DTD/sodipodi-0.dtd" xmlns:inkscape="http://www.inkscape.org/namespaces/inkscape" width="417.668" height="133.16676" viewBox="0 0 110.50799 35.233707" version="1.1" id="svg3166" inkscape:version="1.0.2 (1.0.2+r75+1)" sodipodi:docname="DD.svg">
    <defs id="defs3160">
        <clipPath id="clip127">
            <path d="m 890,474 h 83.62891 v 28.41016 H 890 Z m 0,0" id="path2791" />
        </clipPath>
        <clipPath id="clip118">
            <path d="m 1066,309.48047 h 93.7891 V 329 H 1066 Z m 0,0" id="path2758" />
        </clipPath>
        <clipPath id="clip119">
            <path d="m 1060,312 h 94 v 19.39062 h -94 z m 0,0" id="path2761" />
        </clipPath>
        <clipPath id="clip118-3">
            <path d="m 1066,309.48047 h 93.7891 V 329 H 1066 Z m 0,0" id="path2758-6" />
        </clipPath>
        <clipPath id="clip119-7">
            <path d="m 1060,312 h 94 v 19.39062 h -94 z m 0,0" id="path2761-5" />
        </clipPath>
        <clipPath id="clip155">
            <path d="m 974,316 h 17 v 16.46094 h -17 z m 0,0" id="path7255" />
        </clipPath>
        <clipPath id="clip156">
            <path d="M 972.05859,309 H 990 v 23 h -17.94141 z m 0,0" id="path7258" />
        </clipPath>
        <clipPath id="clip157">
            <path d="m 995,309 h 19 v 23.46094 h -19 z m 0,0" id="path7261" />
        </clipPath>
        <clipPath id="clip158">
            <path d="m 1034,307.42187 h 16.7109 v 25.03907 H 1034 Z m 0,0" id="path7264" />
        </clipPath>
        <clipPath id="clip159">
            <path d="m 989,307.42187 h 13 V 317 h -13 z m 0,0" id="path7267" />
        </clipPath>
        <clipPath id="clip160">
            <path d="m 1003,307.42187 h 10 V 318 h -10 z m 0,0" id="path7270" />
        </clipPath>
        <clipPath id="clip161">
            <path d="m 1041,307.42187 h 9.7109 V 316 H 1041 Z m 0,0" id="path7273" />
        </clipPath>
        <clipPath id="clip162">
            <path d="m 1024,317 h 15 v 15.46094 h -15 z m 0,0" id="path7276" />
        </clipPath>
    </defs>
    <sodipodi:namedview id="base" pagecolor="#ffffff" bordercolor="#666666" borderopacity="1.0" inkscape:pageopacity="0.0" inkscape:pageshadow="2" inkscape:zoom="1" inkscape:cx="158.18412" inkscape:cy="97.781555" inkscape:document-units="px" inkscape:current-layer="layer1" inkscape:document-rotation="0" showgrid="false" units="px" fit-margin-top="0" fit-margin-left="0" fit-margin-right="0" fit-margin-bottom="0" inkscape:window-width="1366" inkscape:window-height="714" inkscape:window-x="0" inkscape:window-y="0" inkscape:window-maximized="1" />
    <metadata id="metadata3163">
        <rdf:RDF>
            <cc:Work rdf:about="">
                <dc:format>image/svg+xml</dc:format>
                <dc:type rdf:resource="http://purl.org/dc/dcmitype/StillImage" />
                <dc:title></dc:title>
            </cc:Work>
        </rdf:RDF>
    </metadata>
    <g inkscape:label="レイヤー 1" inkscape:groupmode="layer" id="layer1" transform="translate(4.2763718e-5)">
        <path style="fill:#eb820a;fill-opacity:1;fill-rule:nonzero;stroke:none;stroke-width:1.41111" d="M 5.0932488,8.3674625 16.613653,5.3082165 22.737654,11.88421 19.402801,27.367866 6.3500128,27.814356 5.0932488,8.3674625" id="path11150" />
        <path style="fill:#eb820a;fill-opacity:1;fill-rule:nonzero;stroke:none;stroke-width:1.41111" d="m 28.674246,12.6945 6.84611,0.35828 -3.241156,9.089538 -3.604954,0.09368 v -9.541543" id="path11152" />
        <path style="fill:#eb820a;fill-opacity:1;fill-rule:nonzero;stroke:none;stroke-width:1.41111" d="m 51.996234,10.533733 -1.802555,2.78915 -2.700869,-4.3215315 h -3.511271 l 0.270087,2.6127705 h 2.700869 l 0.270228,2.51905 -8.191125,1.080389 0.446518,12.060593 10.445476,-0.446476 4.861705,-7.022502 -1.708716,-2.160765 -1.620521,1.620581 -1.350576,-2.342658 4.139639,-4.139639 -2.248889,-2.248961" id="path11154" />
        <path style="fill:#eb820a;fill-opacity:1;fill-rule:nonzero;stroke:none;stroke-width:1.41111" d="M 58.748547,8.1028825 60.815685,26.287474 72.787984,25.835481 75.670887,12.15431 68.918574,6.3003965 58.748547,8.1028825" id="path11156" />
        <path style="fill:#eb820a;fill-opacity:1;fill-rule:nonzero;stroke:none;stroke-width:1.41111" d="m 79.452244,17.010526 5.490072,0.633885 -0.08748,3.32935 2.607314,-0.1764 v -3.064766 h 3.423075 l -2.160838,10.985733 -4.591616,0.1764 -0.540176,-0.986681 h -3.963256 l -2.24889,-4.233336 2.0725,-6.664189" id="path11158" />
        <path style="fill:#eb820a;fill-opacity:1;fill-rule:nonzero;stroke:none;stroke-width:1.41111" d="m 96.198193,9.8116395 0.716565,-2.248961 2.612814,-0.722093 v 2.430866 h 1.890608 l 0.44648,-1.080377 2.70101,0.18188 1.17404,2.4308675 -3.15299,4.768007 1.53247,0.810289 0.89845,-0.898481 2.24889,1.526877 -4.94989,9.635244 -9.183241,-1.080377 -0.446477,-5.40192 1.168545,-4.503436 -1.532329,0.27008 -0.628368,-1.796965 6.664121,-1.802474 -0.992153,-2.7009505 -1.168545,0.18188" id="path11160" />
        <path style="fill:#2b4597;fill-opacity:1;fill-rule:nonzero;stroke:none;stroke-width:1.41111" d="m 12.115733,10.980225 0.264584,8.643059 6.394102,-4.503435 -6.658686,-4.139624" id="path11162" />
        <path style="fill:#2b4597;fill-opacity:1;fill-rule:nonzero;stroke:none;stroke-width:1.41111" d="m 65.319108,11.52041 0.628369,8.554871 5.490073,-5.043628 -6.118442,-3.511243" id="path11164" />
        <path style="fill:#ffffff;fill-opacity:1;fill-rule:nonzero;stroke:none;stroke-width:1.41111" d="m 12.948064,13.846544 -0.02752,4.293975 3.279735,-2.215898 -3.252176,-2.078077" id="path11166" />
        <path style="fill:#ffffff;fill-opacity:1;fill-rule:nonzero;stroke:none;stroke-width:1.41111" d="m 66.531677,14.656832 -0.04374,3.930159 2.656842,-2.474946 -2.612815,-1.455213" id="path11168" />
        <g clip-path="url(#clip155)" clip-rule="nonzero" id="g11172" transform="matrix(1.4111122,0,0,1.4111122,-1371.9649,-433.88944)">
            <path style="fill:#2b4597;fill-opacity:1;fill-rule:nonzero;stroke:none" d="m 988.61719,316.03516 -2.38672,11.10156 -9.58985,0.33203 -2.13281,4.64062 0.0195,0.125 11.10157,-0.38281 2.93359,-7.65625 1.46094,-8.125 -1.40625,-0.0351" id="path11170" />
        </g>
        <g clip-path="url(#clip156)" clip-rule="nonzero" id="g11176" transform="matrix(1.4111122,0,0,1.4111122,-1371.9649,-433.88944)">
            <path style="fill:#2b4597;fill-opacity:1;fill-rule:nonzero;stroke:none" d="m 976.48437,327.16016 -0.90234,-13.95313 8.53516,-2.26562 4.33984,4.65625 0.64844,-1.29688 -4.54688,-4.87891 -9.90625,2.39454 -2.39453,4.58984 2.17969,15.20703 2.04687,-4.45312" id="path11174" />
        </g>
        <path style="fill:#2b4597;fill-opacity:1;fill-rule:nonzero;stroke:none;stroke-width:1.41111" d="m 33.921819,9.9218875 5.231036,-7.54063 -11.01328,-0.490588 -3.241155,5.760205 1.449706,2.155261 -2.039509,4.8672365 1.063852,13.758344 2.92144,-6.361038 v -9.784076 l 7.761117,0.407897 -3.505725,9.828184 -4.084507,0.0992 -3.03169,6.592533 0.0056,0.04404 6.212196,0.1764 7.739118,-18.454695 -5.468117,-1.0583335" id="path11178" />
        <g clip-path="url(#clip157)" clip-rule="nonzero" id="g11182" transform="matrix(1.4111122,0,0,1.4111122,-1371.9649,-433.88944)">
            <path style="fill:#2b4597;fill-opacity:1;fill-rule:nonzero;stroke:none" d="m 1013.3828,316.02734 -3.3125,-3.3125 1.2031,-3.25781 -6.1875,0.57422 -1.5429,2.78125 -0.6289,0.15234 -2.1055,3.57422 -2.57423,0.30078 -2.39843,6.57422 2.11718,7.71094 2.00782,-4.36719 -0.32422,-8.73437 5.78908,-0.76172 -0.1406,-1.28125 h -1.9141 l -0.2461,-2.39063 h 2.9375 l 1.7695,2.82422 1.2266,-1.89844 2.0234,2.02344 -2.9804,2.98047 0.6757,1.17188 1.1172,-1.11719 1.5235,1.92969 -3.6368,5.2539 -7.6718,0.32813 -2.04299,4.44531 8.67579,0.70312 6.3633,-10.78515 c 0,0 -2.125,-2.6875 -2.2149,-2.80078 0.4219,-0.42188 2.4922,-2.6211 2.4922,-2.6211" id="path11180" />
        </g>
        <path style="fill:#2b4597;fill-opacity:1;fill-rule:nonzero;stroke:none;stroke-width:1.41111" d="m 56.95714,33.795045 3.467102,-7.540631 -2.100158,-18.4712475 10.710201,-1.890666 6.923198,5.9972255 1.521462,-2.1607665 -7.209937,-5.947609 -14.050445,2.43637 -2.712016,5.2861535 1.27875,1.278821 -3.511271,3.511243 0.639516,1.973353 1.196059,-1.201645 2.14983,2.723006 -1.94028,2.805687 3.637989,11.200706" id="path11184" />
        <path style="fill:#2b4597;fill-opacity:1;fill-rule:nonzero;stroke:none;stroke-width:1.41111" d="M 76.045678,12.22045 73.102239,26.204798 60.655806,26.67333 57.282401,34.004496 72.341508,32.676076 74.667727,28.0624 79.143634,12.793715 76.045678,12.22045" id="path11186" />
        <g clip-path="url(#clip158)" clip-rule="nonzero" id="g11190" transform="matrix(1.4111122,0,0,1.4111122,-1371.9649,-433.88944)">
            <path style="fill:#2b4597;fill-opacity:1;fill-rule:nonzero;stroke:none" d="m 1047.8906,316.98437 1.2774,-2.67968 -1.4063,-1.96485 2.4258,-1.41406 -7.082,-3.44531 -1.3789,3.03906 -1.1719,0.53125 -2.6133,4.46875 -2.8164,0.86328 -1.0117,2.63281 3.1562,0.28516 v 2.01172 l -1.2578,8.5625 1.9727,-4.29297 -0.3203,-3.83594 0.7343,-2.82422 -0.8945,0.15625 -0.6172,-1.76953 4.7149,-1.27343 -0.5235,-1.42579 -1.0429,0.16016 0.6914,-2.15234 2.332,-0.64453 c 0,0 0,1.42187 0,1.80468 0.2891,0 0.6797,0 0.8867,0 0.086,-0.20312 0.3242,-0.77734 0.3242,-0.77734 l 2.2657,0.15234 0.9687,2.00391 -2.1562,3.25781 0.6445,0.34375 0.6562,-0.65625 1.9766,1.34766 -3.7031,7.20703 -6.7656,-0.79688 -2.2852,4.97266 -0.035,0.25391 9.4766,1.36328 5.2578,-12.33985 -2.6797,-3.125" id="path11188" />
        </g>
        <path style="fill:#ffffff;fill-opacity:1;fill-rule:nonzero;stroke:none;stroke-width:1.41111" d="m 29.308146,3.6876385 h 7.292585 l -3.963235,5.225517 z m 0,0" id="path11192" />
        <g clip-path="url(#clip159)" clip-rule="nonzero" id="g11196" transform="matrix(1.4111122,0,0,1.4111122,-1371.9649,-433.88944)">
            <path style="fill:none;stroke:#ffffff;stroke-width:0.543;stroke-linecap:butt;stroke-linejoin:miter;stroke-miterlimit:4;stroke-opacity:1" d="m 993.02734,530.90625 h 5.16797 l -2.80859,-3.70313 z m 0,0" transform="matrix(1,0,0,-1,0,841)" id="path11194" />
        </g>
        <path style="fill:#ffffff;fill-opacity:1;fill-rule:nonzero;stroke:none;stroke-width:1.41111" d="m 48.032984,5.2200205 4.861705,-0.722093 -2.072642,5.495616 z m 0,0" id="path11198" />
        <g clip-path="url(#clip160)" clip-rule="nonzero" id="g11202" transform="matrix(1.4111122,0,0,1.4111122,-1371.9649,-433.88944)">
            <path style="fill:none;stroke:#ffffff;stroke-width:0.543;stroke-linecap:butt;stroke-linejoin:miter;stroke-miterlimit:4;stroke-opacity:1" d="m 1006.2969,529.82031 3.4453,0.51172 -1.4688,-3.89453 z m 0,0" transform="matrix(1,0,0,-1,0,841)" id="path11200" />
        </g>
        <path style="fill:#ffffff;fill-opacity:1;fill-rule:nonzero;stroke:none;stroke-width:1.41111" d="m 101.41818,3.0592545 0.18188,4.051431 4.22783,-2.430866 z m 0,0" id="path11204" />
        <g clip-path="url(#clip161)" clip-rule="nonzero" id="g11208" transform="matrix(1.4111122,0,0,1.4111122,-1371.9649,-433.88944)">
            <path style="fill:none;stroke:#ffffff;stroke-width:0.543;stroke-linecap:butt;stroke-linejoin:miter;stroke-miterlimit:4;stroke-opacity:1" d="m 1044.1289,531.35156 0.1289,-2.87109 2.9961,1.72265 z m 0,0" transform="matrix(1,0,0,-1,0,841)" id="path11206" />
        </g>
        <path style="fill:#eb820a;fill-opacity:1;fill-rule:nonzero;stroke:none;stroke-width:1.41111" d="m 29.308146,3.6876385 h 7.292585 l -3.963235,5.225517 -3.32935,-5.225517" id="path11210" />
        <path style="fill:#eb820a;fill-opacity:1;fill-rule:nonzero;stroke:none;stroke-width:1.41111" d="m 48.032984,5.2200205 4.861705,-0.722093 -2.072642,5.495616 -2.789063,-4.773523" id="path11212" />
        <path style="fill:#eb820a;fill-opacity:1;fill-rule:nonzero;stroke:none;stroke-width:1.41111" d="m 101.41818,3.0592545 0.18188,4.051431 4.22783,-2.430866 -4.40972,-1.620565" id="path11214" />
        <g clip-path="url(#clip162)" clip-rule="nonzero" id="g11218" transform="matrix(1.4111122,0,0,1.4111122,-1371.9649,-433.88944)">
            <path style="fill:#2b4597;fill-opacity:1;fill-rule:nonzero;stroke:none" d="m 1038.3984,318.92187 -0.8945,0.15625 -0.2578,-0.73828 -9.8398,-0.57422 -2.8985,9.01563 2.2344,4.19922 1.6797,-3.65235 -1.6211,-3.04296 1.5703,-5.04297 4.3594,0.5 -0.062,2.3125 1.3008,-0.0899 v -2.1875 h 3.0234 l -1.6367,8.31641 -3.543,0.13672 -1.4414,3.13672 0.098,0.004 0.01,0.73438 4.4961,0.0195 3.0625,-6.41016 -0.3711,-3.96875 0.7343,-2.82422" id="path11216" />
        </g>
        <path style="fill:#2b4597;fill-opacity:1;fill-rule:nonzero;stroke:none;stroke-width:1.41111" d="m 83.365823,28.288392 h -3.819881 l -2.414272,5.247571 4.459255,0.159841 2.160838,-4.701868 -0.38596,-0.705557" id="path11220" />
        <path style="fill:#de001e;fill-opacity:1;fill-rule:nonzero;stroke:none;stroke-width:1.41111" d="m 21.012358,19.898888 c -0.170884,0.793753 -1.499307,6.956346 -1.609557,7.468978 -0.551208,0.0164 -12.3637702,0.424434 -13.0527882,0.44649 -0.03852,-0.644938 -0.463014,-7.209911 -0.512629,-7.915468 0.755171,0 14.3040502,0 15.1749742,0" id="path11222" />
        <path style="fill:#de001e;fill-opacity:1;fill-rule:nonzero;stroke:none;stroke-width:1.41111" d="m 33.078468,19.898888 c -0.226004,0.633902 -0.677997,1.907206 -0.799268,2.243446 -0.418917,0.0112 -2.998613,0.0772 -3.604954,0.09368 0,-0.518144 0,-1.835545 0,-2.337154 0.589802,0 3.599451,0 4.404222,0" id="path11224" />
        <path style="fill:#de001e;fill-opacity:1;fill-rule:nonzero;stroke:none;stroke-width:1.41111" d="m 54.719257,19.898888 c -0.407953,0.584289 -4.597262,6.64215 -4.795665,6.92879 -0.352776,0.0164 -9.73992,0.418916 -10.445476,0.446476 -0.02258,-0.66146 -0.248073,-6.691748 -0.27559,-7.375266 0.744079,0 14.904873,0 15.516731,0" id="path11226" />
        <path style="fill:#de001e;fill-opacity:1;fill-rule:nonzero;stroke:none;stroke-width:1.41111" d="m 74.039359,19.898888 c -0.159881,0.760678 -1.146529,5.440506 -1.251375,5.936594 -0.55118,0.022 -11.316414,0.424437 -11.972299,0.451993 -0.06632,-0.600821 -0.64502,-5.672009 -0.72771,-6.388586 0.782743,0 13.091452,0 13.951384,0" id="path11228" />
        <path style="fill:#de001e;fill-opacity:1;fill-rule:nonzero;stroke:none;stroke-width:1.41111" d="m 105.78388,19.898888 c -0.47414,0.926045 -3.2577,6.338986 -3.46724,6.746882 -0.4795,-0.05516 -8.615409,-1.014237 -9.183241,-1.080377 -0.04376,-0.55122 -0.440973,-5.280647 -0.446477,-5.40192 0.014,-0.04968 0.0324,-0.13224 0.06632,-0.2646 0.540173,0 11.911758,0 13.030768,0" id="path11230" />
        <path style="fill:#de001e;fill-opacity:1;fill-rule:nonzero;stroke:none;stroke-width:1.41111" d="m 90.460049,19.898888 c -0.159881,0.799269 -1.63167,8.284768 -1.736374,8.819453 -0.507152,0.0164 -4.189171,0.159839 -4.59162,0.1764 -0.14336,-0.259081 -0.540172,-0.986682 -0.540172,-0.986682 0,0 -3.549794,0 -3.96325,0 -0.187396,-0.35828 -2.111165,-3.979771 -2.24889,-4.233336 0.08184,-0.2646 1.030677,-3.32383 1.174046,-3.775827 0.490502,0 5.655455,0 6.327991,0 -0.014,0.308681 -0.0284,1.074873 -0.0284,1.074873 l 2.60731,-0.1764 c 0,0 0,-0.639416 0,-0.898485 0.540173,0 2.359238,0 2.998615,0" id="path11232" />
    </g>
</svg>